<svg xmlns="http://www.w3.org/2000/svg" xmlns:xlink="http://www.w3.org/1999/xlink" width="198.676" height="239.865" viewBox="0 0 198.676 239.865"><defs><style>.a{fill:#d8b790;}.b{fill:#fff;}.c{filter:url(#a);}</style><filter id="a" x="0" y="0" width="198.676" height="239.865" filterUnits="userSpaceOnUse"><feOffset dy="3" input="SourceAlpha"/><feGaussianBlur stdDeviation="3" result="b"/><feFlood flood-opacity="0.161"/><feComposite operator="in" in2="b"/><feComposite in="SourceGraphic"/></filter></defs><g transform="translate(66.901 77.1)"><g transform="translate(-57.901 -71.1)"><g class="c" transform="matrix(1, 0, 0, 1, -9, -6)"><path class="a" d="M172.958,129.336l1.716-4.213h0l1.56-4.213h0a43.045,43.045,0,0,0,1.248-4.213v-.468c.312-1.4.624-2.652.936-4.057v-.624c.312-1.248.468-2.652.78-3.9v-.78l.468-3.745v-.936c.156-1.248.156-2.5.312-3.589s0-.78.156-1.092a37.014,37.014,0,0,0,.156-4.837,90.337,90.337,0,1,0-180.206,0c0,1.56,0,3.276.156,4.837s0,.78.156,1.092,0,2.34.156,3.589v1.092l.468,3.745v.78a34.5,34.5,0,0,0,.78,3.9v.468c.312,1.4.624,2.808.936,4.057v.312a43.039,43.039,0,0,0,1.248,4.213h0a90.494,90.494,0,0,0,24.5,38.226l56.948,56.949a6.085,6.085,0,0,0,8.581,0L150.8,159.137h0a89.869,89.869,0,0,0,21.375-29.8Z" transform="translate(9.15 10.16)"/></g><g transform="translate(48.602 150.959)"><path class="b" d="M31,78.5h4.837a4.369,4.369,0,0,1,3.12,1.092,3.276,3.276,0,0,1,.936,2.34h0a3.276,3.276,0,0,1-2.652,3.276l3.12,4.213h-2.34l-2.652-3.9h-2.34v3.9H31Zm4.681,5.461c1.4,0,2.184-.78,2.184-1.872h0q0-1.872-2.34-1.872h-2.5v3.745Z" transform="translate(-31 -75.07)"/><path class="b" d="M38.3,79.733h8.113v1.716H40.172v2.808h5.461v1.716H40.172v2.964h6.241v1.716H38.3ZM42.825,76.3l1.716.78-1.872,1.872h-1.4Z" transform="translate(-26.91 -76.3)"/><path class="b" d="M44.5,87.923l1.092-1.4a4.993,4.993,0,0,0,3.433,1.4c1.248,0,1.872-.624,1.872-1.4h0c0-.78-.468-1.248-2.5-1.716s-3.589-1.248-3.589-3.276h0a3.433,3.433,0,0,1,3.745-3.12,6.085,6.085,0,0,1,4.057,1.4l-1.092,1.4a4.993,4.993,0,0,0-2.964-1.092c-1.092,0-1.716.624-1.716,1.248h0c0,.78.468,1.248,2.652,1.716s3.589,1.4,3.589,3.276h0c0,2.028-1.56,3.276-3.9,3.276A6.709,6.709,0,0,1,44.5,87.923Z" transform="translate(-23.437 -75.129)"/><path class="b" d="M51.5,78.5h8.113v1.716H53.372v2.808h5.461v1.716H53.372v2.964h6.241v1.716H51.5Z" transform="translate(-19.515 -75.067)"/><path class="b" d="M58.2,78.5h4.837a4.369,4.369,0,0,1,3.12,1.092,3.276,3.276,0,0,1,.936,2.34h0a3.276,3.276,0,0,1-2.652,3.276l2.964,4.213H65.221l-2.652-3.9h-2.5v3.9H58.2Zm4.681,5.461c1.4,0,2.184-.78,2.184-1.872h0q0-1.872-2.34-1.872H60.072v3.745Z" transform="translate(-15.762 -75.07)"/><path class="b" d="M64.6,78.5h2.184l3.276,8.425L73.337,78.5h2.028L70.841,89.578h-1.56Z" transform="translate(-12.176 -75.067)"/><path class="b" d="M72.8,78.5h8.113v1.716H74.672v2.808h5.461v1.716H74.672v2.964h6.241v1.716H72.8Z" transform="translate(-7.582 -75.067)"/><path class="b" d="M79.3,88.017l6.553-7.8H79.612V78.5h8.581v1.4l-6.553,7.8h6.553v1.716H79.3Z" transform="translate(-3.941 -75.067)"/></g><g transform="translate(22.274 64.545)"><path class="b" d="M21.6,58.845l2.632-3.125a9.047,9.047,0,0,0,5.922,2.467c1.809,0,2.8-.658,2.8-1.809h0c0-1.151-.658-1.645-3.948-2.467s-6.58-2.138-6.58-6.086h0c0-3.619,2.961-5.922,6.909-5.922a11.515,11.515,0,0,1,7.4,2.467l-2.3,3.29a9.212,9.212,0,0,0-5.1-1.974c-1.645,0-2.467.822-2.467,1.645h0c0,1.316.822,1.645,4.277,2.632s6.251,2.467,6.251,5.922h0c0,3.948-2.961,6.086-7.238,6.086A12.666,12.666,0,0,1,21.6,58.845Z" transform="translate(-14.033 -35.321)"/><path class="b" d="M33.4,44.48H48.369v3.948H37.677v3.948h9.376v3.783H37.677v4.112H48.369V64.22H33.4Zm8.225-6.58,3.783,1.645L41.789,43H38.5Z" transform="translate(-6.422 -37.9)"/><path class="b" d="M52.454,41.8H56.4l8.554,19.9H60.35L58.54,57.263H50.151L48.341,61.7H43.9ZM57.06,53.479l-2.8-6.415-2.632,6.415Z" transform="translate(0.35 -35.385)"/><path class="b" d="M58.5,41.9h3.948L71.66,54.073V41.9h4.277V61.64H72.318l-9.541-12.5v12.5H58.5Z" transform="translate(9.767 -35.32)"/><path class="b" d="M71.5,51.9h0A10.034,10.034,0,0,1,81.864,41.7,10.2,10.2,0,0,1,89.6,44.828l-2.8,3.125a7.238,7.238,0,0,0-5.1-2.3,5.922,5.922,0,0,0-5.757,6.086h0A5.922,5.922,0,0,0,81.7,57.988a7.073,7.073,0,0,0,5.264-2.3l2.8,2.961A10.363,10.363,0,0,1,71.5,51.9Z" transform="translate(18.151 -35.452)"/><path class="b" d="M84.7,41.9H99.669v3.948H89.141V49.8h9.212v3.783H89.141v4.112H99.834V61.64H84.7Z" transform="translate(26.665 -35.32)"/><path class="b" d="M17,68.9h0A10.2,10.2,0,0,1,27.528,58.7,10.2,10.2,0,0,1,38.056,68.9h0A10.2,10.2,0,0,1,27.528,79.1,10.2,10.2,0,0,1,17,68.9Zm16.45,0h0a6.086,6.086,0,0,0-5.922-6.251,5.922,5.922,0,0,0-5.922,6.086h0a6.086,6.086,0,0,0,5.922,6.251A5.922,5.922,0,0,0,33.45,68.9Z" transform="translate(-17 -22.91)"/><path class="b" d="M32.1,58.9H47.234v3.948H36.377v4.277h9.376v3.948H36.377V78.8H32.1Z" transform="translate(-7.261 -22.779)"/><path class="b" d="M43.4,58.9H58.534v3.948H47.677v4.277h9.376v3.948H47.677V78.8H43.4Z" transform="translate(0.028 -22.779)"/><path class="b" d="M54.6,58.9H69.569v3.948H59.041V66.8h9.376v3.783H59.041v4.112H69.734V78.64H54.6Z" transform="translate(7.251 -22.779)"/><path class="b" d="M66.1,58.907h9.047A7.9,7.9,0,0,1,80.9,60.881a6.251,6.251,0,0,1,1.645,4.441h0a6.086,6.086,0,0,1-4.277,6.086l4.77,7.073H78.108l-4.277-6.251h-3.29v6.251H66.1Zm8.718,9.541c2.138,0,3.29-1.151,3.29-2.8h0c0-1.809-1.316-2.8-3.454-2.8H70.541v5.757Z" transform="translate(14.669 -22.786)"/><path class="b" d="M83.622,62.848H77.7V58.9H94.15v3.948H88.063V78.64H83.622Z" transform="translate(22.15 -22.779)"/><path class="b" d="M89.7,58.9h14.969v3.948H93.977V66.8h9.376v3.783H93.977v4.112h10.692V78.64H89.7Z" transform="translate(29.89 -22.779)"/></g><g transform="translate(93.995 29.082)"><path class="b" d="M60.6,20.754h7.9v1.974H62.738v2.138h4.935v1.974H62.738v2.138h5.593v1.974H60.6Zm1.645-2.632,1.974-.822,1.645,2.632H64.054Z" transform="translate(-60.6 -17.3)"/><path class="b" d="M66.6,19.4h4.77a4.112,4.112,0,0,1,2.961.987,3.29,3.29,0,0,1,.822,2.467h0a3.29,3.29,0,0,1-2.3,3.29l2.467,3.783h-2.3l-2.3-3.29H68.9v3.29H66.6Zm4.606,5.1c1.151,0,1.809-.658,1.809-1.48h0c0-.987-.658-1.48-1.809-1.48H68.9V24.5Z" transform="translate(-56.73 -15.949)"/><path class="b" d="M73.2,19.4h7.9v1.974H75.5v2.138h4.935v1.974H75.5v2.138H81.1V29.6H73.2Z" transform="translate(-52.473 -15.946)"/></g><path class="b" d="M56.567,22.486,50.316,24.3,49,19.361,58.212,16.4h4.277V51.274H56.567Z" transform="translate(25.913 11.201)"/></g></g></svg>