<svg xmlns="http://www.w3.org/2000/svg" width="26.529" height="26.529" viewBox="0 0 26.529 26.529"><defs><style>.a{fill:#fff;fill-rule:evenodd;}</style></defs><path class="a" d="M13.264,2.358a40.671,40.671,0,0,1,5.306.147,6.836,6.836,0,0,1,2.505.442,5.176,5.176,0,0,1,2.505,2.505,6.836,6.836,0,0,1,.442,2.505c0,1.326.147,1.769.147,5.306a40.671,40.671,0,0,1-.147,5.306,6.836,6.836,0,0,1-.442,2.505,5.176,5.176,0,0,1-2.505,2.505,6.836,6.836,0,0,1-2.505.442c-1.326,0-1.769.147-5.306.147a40.671,40.671,0,0,1-5.306-.147,6.836,6.836,0,0,1-2.505-.442,5.176,5.176,0,0,1-2.505-2.505,6.836,6.836,0,0,1-.442-2.505c0-1.326-.147-1.769-.147-5.306a40.671,40.671,0,0,1,.147-5.306,6.836,6.836,0,0,1,.442-2.505A5.293,5.293,0,0,1,3.979,3.979,2.492,2.492,0,0,1,5.453,2.948a6.836,6.836,0,0,1,2.505-.442,40.671,40.671,0,0,1,5.306-.147m0-2.358A43.547,43.547,0,0,0,7.811.147a9.1,9.1,0,0,0-3.242.59A5.77,5.77,0,0,0,2.211,2.211,5.77,5.77,0,0,0,.737,4.569a6.715,6.715,0,0,0-.59,3.242A43.547,43.547,0,0,0,0,13.264a43.547,43.547,0,0,0,.147,5.453,9.1,9.1,0,0,0,.59,3.242,5.77,5.77,0,0,0,1.474,2.358,5.77,5.77,0,0,0,2.358,1.474,9.1,9.1,0,0,0,3.242.59,43.548,43.548,0,0,0,5.453.147,43.548,43.548,0,0,0,5.453-.147,9.1,9.1,0,0,0,3.242-.59,6.183,6.183,0,0,0,3.832-3.832,9.1,9.1,0,0,0,.59-3.242c0-1.474.147-1.916.147-5.453a43.548,43.548,0,0,0-.147-5.453,9.1,9.1,0,0,0-.59-3.242,5.77,5.77,0,0,0-1.474-2.358A5.77,5.77,0,0,0,21.96.737a9.1,9.1,0,0,0-3.242-.59A43.547,43.547,0,0,0,13.264,0m0,6.485a6.67,6.67,0,0,0-6.78,6.78,6.78,6.78,0,1,0,6.78-6.78m0,11.2a4.343,4.343,0,0,1-4.421-4.421,4.343,4.343,0,0,1,4.421-4.421,4.343,4.343,0,0,1,4.421,4.421,4.343,4.343,0,0,1-4.421,4.421M20.339,4.569A1.621,1.621,0,1,0,21.96,6.19a1.636,1.636,0,0,0-1.621-1.621" transform="translate(0 0)"/></svg>