<?xml version="1.0" encoding="utf-8"?>
<!-- Generator: Adobe Illustrator 22.1.0, SVG Export Plug-In . SVG Version: 6.00 Build 0)  -->
<svg version="1.1" id="Calque_1" xmlns="http://www.w3.org/2000/svg" xmlns:xlink="http://www.w3.org/1999/xlink" x="0px" y="0px"
	 viewBox="0 0 26.5 26.5" style="enable-background:new 0 0 26.5 26.5;" xml:space="preserve">
<style type="text/css">
	.st0{fill:#02548A;}
</style>
<path class="st0" d="M13.3,2.4c1.8-0.1,3.5,0,5.3,0.1c0.9,0,1.7,0.1,2.5,0.4c1.1,0.5,2,1.4,2.5,2.5C23.9,6.3,24,7.1,24,8
	c0,1.3,0.1,1.8,0.1,5.3c0.1,1.8,0,3.5-0.1,5.3c0,0.9-0.1,1.7-0.4,2.5c-0.5,1.1-1.4,2-2.5,2.5c-0.8,0.3-1.6,0.5-2.5,0.4
	c-1.3,0-1.8,0.1-5.3,0.1c-1.8,0.1-3.5,0-5.3-0.1c-0.9,0-1.7-0.1-2.5-0.4c-1.1-0.5-2-1.4-2.5-2.5c-0.3-0.8-0.5-1.6-0.4-2.5
	c0-1.3-0.1-1.8-0.1-5.3c-0.1-1.8,0-3.5,0.1-5.3c0-0.9,0.1-1.7,0.4-2.5c0.3-0.5,0.6-1,1-1.5c0.3-0.5,0.9-0.9,1.5-1
	C6.3,2.6,7.1,2.5,8,2.5C9.7,2.3,11.5,2.3,13.3,2.4 M13.3,0c-1.8-0.1-3.6,0-5.5,0.1c-1.1,0-2.2,0.2-3.2,0.6C3.7,1,2.9,1.5,2.2,2.2
	C1.5,2.9,1,3.7,0.7,4.6c-0.5,1-0.7,2.1-0.6,3.2C0,9.6-0.1,11.4,0,13.3c-0.1,1.8,0,3.6,0.1,5.5c0,1.1,0.2,2.2,0.6,3.2
	c0.3,0.9,0.8,1.7,1.5,2.4c0.7,0.7,1.5,1.2,2.4,1.5c1,0.4,2.1,0.6,3.2,0.6c1.8,0.2,3.6,0.2,5.5,0.1c1.8,0.1,3.6,0,5.5-0.1
	c1.1,0,2.2-0.2,3.2-0.6c1.8-0.6,3.2-2,3.8-3.8c0.4-1,0.6-2.1,0.6-3.2c0-1.5,0.1-1.9,0.1-5.5c0.1-1.8,0-3.6-0.1-5.5
	c0-1.1-0.2-2.2-0.6-3.2c-0.3-0.9-0.8-1.7-1.5-2.4C23.7,1.5,22.9,1,22,0.7c-1-0.4-2.1-0.6-3.2-0.6C16.9,0,15.1-0.1,13.3,0 M13.3,6.5
	C9.6,6.4,6.5,9.4,6.5,13c0,0.1,0,0.1,0,0.2c0,3.7,3,6.8,6.8,6.8s6.8-3,6.8-6.8S17,6.5,13.3,6.5L13.3,6.5 M13.3,17.7
	c-2.4,0-4.4-1.9-4.4-4.3c0-0.1,0-0.1,0-0.2c0-2.4,1.9-4.4,4.3-4.4c0.1,0,0.1,0,0.2,0c2.4,0,4.4,1.9,4.4,4.3c0,0.1,0,0.1,0,0.2
	c0,2.4-1.9,4.4-4.3,4.4C13.4,17.7,13.3,17.7,13.3,17.7 M20.3,4.6c-0.9,0-1.6,0.7-1.6,1.6c0,0.9,0.7,1.6,1.6,1.6
	c0.9,0,1.6-0.7,1.6-1.6c0,0,0,0,0,0C22,5.3,21.2,4.6,20.3,4.6"/>
</svg>
