<svg xmlns="http://www.w3.org/2000/svg" width="175.821" height="56.118" viewBox="0 0 175.821 56.118"><defs><style>.a{fill:#fff;}</style></defs><g transform="translate(87.911 28.059)"><g transform="translate(-87.911 -28.059)"><path class="a" d="M32.04,12.924a.837.837,0,0,1-.837.837H20.737a.837.837,0,0,1-.837-.837V9.575a1.068,1.068,0,0,1,.837-1.047L30.993,6.017a.837.837,0,0,1,1.047.628Z" transform="translate(21.753 5.308)"/><path class="a" d="M51.333,9.612V9.193h0V8.775h0V8.565h0V8.147h.209V6.682a7.326,7.326,0,0,0-14.442,0V7.1h.209v.419h0v.419h0a7.326,7.326,0,0,0,2.512,3.977l4.6,4.6h.628l4.6-4.6h0a7.117,7.117,0,0,0,1.674-2.3Z" transform="translate(40.554 -0.589)"/><path class="a" d="M7.117,15.047A22.187,22.187,0,0,1,6.07,22.373c-.209.628.209,1.256.837.628a11.093,11.093,0,0,1,8.582-3.768c7.326,0,11.721,4.6,11.721,12.14V50.42a.628.628,0,0,1-.628.628H20.931a.628.628,0,0,1-.628-.628V32.21c0-4.186-2.093-6.489-5.651-6.489S7.117,29.908,7.117,35.35V50.42a.628.628,0,0,1-.628.628H.628A.628.628,0,0,1,0,50.42V5.628A.628.628,0,0,1,.628,5H6.489a.628.628,0,0,1,.628.628Z" transform="translate(0 4.232)"/><path class="a" d="M48.066,42.659a.628.628,0,0,1-.628.628H41.786a.628.628,0,0,1-.628-.628V18.379h-2.93a.628.628,0,0,1-.628-.628V12.728a.628.628,0,0,1,.628-.628h9.21a.628.628,0,0,1,.628.628Z" transform="translate(41.101 11.993)"/><path class="a" d="M67.542,15.568c.209.837.837.628,1.256,0A10.884,10.884,0,0,1,77.17,11.8a10.047,10.047,0,0,1,8.372,4.4,1.268,1.268,0,0,0,2.093,0,10.884,10.884,0,0,1,8.791-4.4c7.326,0,11.512,4.6,11.512,12.14V42.988a.628.628,0,0,1-.628.628H101.45a.628.628,0,0,1-.628-.628V24.778c0-3.977-1.674-6.489-5.023-6.489s-7.117,3.768-7.117,9.628v15.07a.628.628,0,0,1-.628.628h-6.07a.628.628,0,0,1-.628-.628V24.568c0-3.977-1.884-6.489-5.023-6.489s-7.117,3.768-7.117,9.628v15.07a.628.628,0,0,1-.628.628H62.728a.628.628,0,0,1-.628-.628V13.056a.628.628,0,0,1,.628-.628h3.558a.628.628,0,0,1,.837.628Z" transform="translate(67.882 11.664)"/><path class="a" d="M41.245,37.127H30.57c-3.977,0-6.489-1.465-7.326-4.814l10.047-1.465C39.78,29.8,42.71,27.08,42.71,22.056S38.106,11.8,30.361,11.8,15.5,18.079,15.5,28.126s5.233,15.489,14.652,15.7H41.245a.628.628,0,0,0,.628-.628V37.755a.628.628,0,0,0-.628-.628ZM30.361,18.079c3.558,0,5.442,1.256,5.442,3.977s-1.256,2.721-3.558,3.14l-9.628,1.465c.628-5.861,3.558-8.582,7.745-8.582Z" transform="translate(16.943 11.665)"/><path class="a" d="M40.838,44.769H38.117V5.628A.628.628,0,0,0,37.489,5H31.628A.628.628,0,0,0,31,5.628V50.42a.628.628,0,0,0,.628.628h9.21a.628.628,0,0,0,.628-.628V45.4a.628.628,0,0,0-.628-.628Z" transform="translate(33.886 4.232)"/><path class="a" d="M67.459,40.148c-.209-.419-.419-.628-1.047,0a11.512,11.512,0,0,1-8.791,3.977c-7.326,0-11.721-4.6-11.721-12.14V12.728a.628.628,0,0,1,.628-.628h5.651a.628.628,0,0,1,.628.628v18.21c0,3.977,2.093,6.489,5.651,6.489s7.535-3.558,7.535-9.628V12.728a.628.628,0,0,1,.628-.628h5.651a.628.628,0,0,1,.628.628V42.659a.628.628,0,0,1-.628.628H68.715a.628.628,0,0,1-.837-.628Z" transform="translate(50.174 11.993)"/></g></g></svg>