<svg xmlns="http://www.w3.org/2000/svg" viewBox="0 0 67.46 105.3"><defs><style>.cls-1{fill:#1d1d1b;}</style></defs><title>Fichier 2</title><g id="Calque_2" data-name="Calque 2"><g id="Calque_1-2" data-name="Calque 1"><path class="cls-1" d="M57.46,0,48,5.48,38.48,0l-10,5.77v22.5L38,33.75V78.18L67.21,61.3l.25-.14V5.77Zm9,60.58L58,65.49V11.54H57V66h.1L39,76.45V11.54H38V32.6l-8.5-4.91V6.35l9-5.2,9,5.2V60.52h1V6.34l9-5.19,9,5.2Z"/><path class="cls-1" d="M20,43.73h0V33.18L10,27.41,0,33.18V88.57L19.49,99.82l10-5.77V49.62L20,44.14Zm8.49,6.47V93.47l-9,5.19-9-5.19V39h-1V92.89L1,88V33.75l9-5.19,9,5.19v11h0V88.28h1v-43Z"/><path class="cls-1" d="M38,88V99.53l10,5.77,10-5.77V88L48,82.22ZM57,99l-9,5.2L39,99V88.57l9-5.19,9,5.19Z"/></g></g></svg>