<?xml version="1.0" encoding="UTF-8"?>
<svg width="129px" height="60px" viewBox="0 0 129 60" version="1.1" xmlns="http://www.w3.org/2000/svg" xmlns:xlink="http://www.w3.org/1999/xlink">
    <!-- Generator: Sketch 55.2 (78181) - https://sketchapp.com -->
    <title>Group 9</title>
    <desc>Created with Sketch.</desc>
    <defs>
        <polygon id="path-1" points="0 0.0389361702 128.488493 0.0389361702 128.488493 59.3616769 0 59.3616769"></polygon>
        <polygon id="path-3" points="0.0818877406 0.4013483 54.4902907 0.4013483 54.4902907 58.9999746 0.0818877406 58.9999746"></polygon>
    </defs>
    <g id="Page-1" stroke="none" stroke-width="1" fill="none" fill-rule="evenodd">
        <g id="PAGE-CONTACT" transform="translate(-656.000000, -1457.000000)">
            <g id="Group-9" transform="translate(656.000000, 1457.000000)">
                <g id="Group-3">
                    <mask id="mask-2" fill="white">
                        <use xlink:href="#path-1"></use>
                    </mask>
                    <g id="Clip-2"></g>
                    <path d="M97.788097,31.6608511 C102.167679,34.7661702 107.057485,35.502766 112.141754,35.0974468 C120.554993,34.4265957 126.885619,29.1823404 128.21156,21.9434043 C129.615157,14.2819149 125.632201,6.74808511 117.494291,3.72 C112.818843,1.9793617 107.570276,1.15978723 102.554037,1.04617021 C90.4389478,0.770425532 80.4565299,7.30085106 76.2861716,17.417234 C71.5773507,28.8402128 73.9494104,42.9453191 82.1181269,50.9955319 C90.404291,59.1631915 100.654978,60.4302128 111.557082,58.6691489 C117.729828,57.672766 123.271694,55.3161702 126.707201,49.6531915 C128.00041,47.5219149 128.586366,45.2706383 126.680246,43.1846809 C124.864619,41.1982979 122.722963,41.7938298 120.465142,42.4914894 C117.43653,43.427234 114.346948,44.4925532 111.222709,44.7338298 C103.053993,45.3670213 96.9601866,39.4091489 97.788097,31.6608511 M37.7209478,0.0389361702 C29.2249179,0.478723404 23.1465149,0.719361702 17.0796642,1.1393617 C14.1056045,1.34553191 11.1482313,1.84404255 8.19342537,2.2812766 C1.88141045,3.21446809 -0.344320896,5.49574468 0.0420373134,11.802766 C0.95530597,26.6974468 5.17123134,40.8044681 11.4800373,54.2604255 C14.0876343,59.8238298 20.873291,60.12 24.5154552,55.0780851 C26.9414254,51.7193617 29.0400821,48.1295745 31.3569478,44.6910638 C34.0460522,40.7010638 36.5464701,40.6857447 39.2079776,44.6387234 C41.6416493,48.252766 43.8128284,52.0557447 46.4249179,55.5344681 C49.8020224,60.0331915 56.4965448,59.6265957 58.9019776,54.5757447 C65.3892015,40.9544681 69.6583955,26.646383 70.5427836,11.5251064 C70.8919179,5.56212766 68.6693955,3.04212766 62.7437388,2.37 C53.6380075,1.33787234 44.4918433,0.655531915 37.7209478,0.0389361702" id="Fill-1" fill="#2C2D71" mask="url(#mask-2)"></path>
                </g>
                <path d="M36.4038944,0 C49.1551303,0 53.9586338,1.23002034 63.119509,2.27026244 C69.0799855,2.94767427 71.3158098,5.48748614 70.9645858,11.4973449 C70.0749047,26.7375028 65.7801593,41.158076 59.2541091,54.8864411 C56.8349252,59.9763579 50.0996902,60.3867936 46.7023736,55.8527018 C44.0752962,52.3466292 41.8904768,48.513752 39.4422395,44.8712964 C36.7654484,40.8872399 34.2494198,40.9026795 31.5448665,44.9240483 C29.2134887,48.389592 27.1022714,52.0076017 24.6617817,55.3927309 C20.9984646,60.4742845 14.1721954,60.1757859 11.5483462,54.568643 C5.20242731,41.0068967 0.960623786,26.7889681 0.0425348042,11.7771874 C-0.346135777,5.42058127 1.89291668,3.12136961 8.24270932,2.1808415 C11.2145543,1.74016999 14.1896275,1.23774013 17.1821327,1.02994904 C23.2846482,0.606647061 23.6526586,0 36.4038944,0" id="Fill-4" fill="#2C2D71"></path>
                <g id="Group-8" transform="translate(74.000000, 0.000000)">
                    <mask id="mask-4" fill="white">
                        <use xlink:href="#path-3"></use>
                    </mask>
                    <g id="Clip-7"></g>
                    <path d="M23.8978198,31.1686739 C23.0728198,38.9534674 29.1452035,44.9394022 37.2852035,44.3032283 C40.3984593,44.0608152 43.4771802,42.9904783 46.4951453,42.0503261 C48.7450291,41.3493804 50.879157,40.7510435 52.6884012,42.7467826 C54.5878198,44.8425652 54.0039244,47.1044457 52.7152616,49.2457609 C49.2918314,54.935413 43.7694477,57.3031087 37.6184012,58.3041848 C26.7546221,60.0735435 16.5399709,58.8005543 8.28293605,50.5944239 C0.142936047,42.5062935 -2.22078488,28.33475 2.47148256,16.8579674 C6.62718023,6.69393478 16.5745058,0.13275 28.6470058,0.409793478 C33.6456105,0.523945652 38.8757267,1.34738043 43.5347384,3.09621739 C51.6440407,6.13856522 55.6129942,13.7078804 54.2143314,21.4054565 C52.8930523,28.6784891 46.5846802,33.9474457 38.2010174,34.6214565 C33.1346221,35.0286848 28.2620058,34.2886196 23.8978198,31.1686739" id="Fill-6" fill="#2C2D71" mask="url(#mask-4)"></path>
                </g>
            </g>
        </g>
    </g>
</svg>