<svg xmlns="http://www.w3.org/2000/svg" width="83.272" height="26.849" viewBox="0 0 83.272 26.849"><defs><style>.a{fill:#008b85;}</style></defs><g transform="translate(41.636 13.424)"><g transform="translate(-41.636 -13.424)"><path class="a" d="M97.593,30.906a.408.408,0,0,1-.408.408H92.208a.408.408,0,0,1-.408-.408V29.319c0-.236.086-.365.408-.451L97.1,27.645a.368.368,0,0,1,.493.322Z" transform="translate(-72.101 -21.974)"/><path class="a" d="M178.729,5.8l.064-.15h0l.064-.172h0l.043-.15h0l.043-.15h0v-.15h0v-.6a3.433,3.433,0,0,0-6.844,0v.536h0v.15h0l.043.15h0l.043.15h0a3.432,3.432,0,0,0,.923,1.459l2.167,2.167a.236.236,0,0,0,.322,0l2.145-2.145h0a3.411,3.411,0,0,0,.815-1.137Z" transform="translate(-135.173 -1.264)"/><path class="a" d="M3.377,27.593a10.513,10.513,0,0,1-.493,3.476c-.129.343.064.558.429.279a5.278,5.278,0,0,1,4.1-1.759c3.476,0,5.578,2.167,5.578,5.771V44.37a.3.3,0,0,1-.343.343h-2.7A.3.3,0,0,1,9.6,44.37V35.7c0-1.952-1.008-3.089-2.66-3.089-2.467,0-3.54,1.952-3.561,4.613v7.1a.3.3,0,0,1-.343.343H.33a.3.3,0,0,1-.343-.322V23.13a.3.3,0,0,1,.343-.343h2.7a.3.3,0,0,1,.343.343Z" transform="translate(0.017 -18.166)"/><path class="a" d="M178.786,70.19a.3.3,0,0,1-.343.343h-2.7a.3.3,0,0,1-.343-.343V58.733H174.13a.3.3,0,0,1-.343-.343V56.03a.3.3,0,0,1,.343-.343h4.334a.3.3,0,0,1,.343.343Z" transform="translate(-136.495 -44.008)"/><path class="a" d="M289.369,56.2c.064.365.343.257.558.021A5.175,5.175,0,0,1,293.9,54.4a4.763,4.763,0,0,1,3.969,2.06c.408.429.665.343,1.03,0a5.132,5.132,0,0,1,4.184-2.038c3.411,0,5.364,2.167,5.364,5.771V69.2a.3.3,0,0,1-.343.343h-2.725a.3.3,0,0,1-.343-.343V60.535c0-1.931-.794-3.089-2.4-3.089-2.317,0-3.368,1.8-3.368,4.613v7.1a.3.3,0,0,1-.343.343h-2.725a.3.3,0,0,1-.343-.343V60.514c0-1.888-.858-3.047-2.4-3.047-2.36,0-3.347,1.8-3.347,4.613v7.1a.3.3,0,0,1-.343.343H287.03a.3.3,0,0,1-.343-.343V55.043a.3.3,0,0,1,.343-.343h1.695a.322.322,0,0,1,.365.3Z" transform="translate(-225.173 -42.999)"/><path class="a" d="M83.986,66.457H78.944c-1.888-.021-3.111-.729-3.433-2.339l4.784-.729c3.047-.451,4.484-1.8,4.484-4.141,0-3.025-2.231-4.849-5.9-4.849-4.463,0-7.08,2.961-7.08,7.724s2.51,7.316,6.951,7.423h5.213a.3.3,0,0,0,.3-.3V66.779a.3.3,0,0,0-.279-.322Zm-5.149-9.011c1.652,0,2.6.644,2.6,1.867,0,.794-.579,1.287-1.652,1.459L75.19,61.5C75.447,58.712,76.82,57.447,78.837,57.447Z" transform="translate(-56.392 -43)"/><path class="a" d="M147.864,41.667h-1.287V23.13a.3.3,0,0,0-.343-.343h-2.7a.3.3,0,0,0-.343.343V44.348a.3.3,0,0,0,.343.343h4.334a.3.3,0,0,0,.343-.343v-2.36a.3.3,0,0,0-.343-.322Z" transform="translate(-112.46 -18.166)"/><path class="a" d="M221.985,69.088c-.064-.193-.193-.343-.515-.021a5.471,5.471,0,0,1-4.205,1.867c-3.476,0-5.578-2.167-5.578-5.771V56.151a.3.3,0,0,1,.343-.343h2.725a.3.3,0,0,1,.343.343v8.625c0,1.931,1.008,3.089,2.66,3.089,2.253,0,3.561-1.652,3.561-4.613V56.13a.3.3,0,0,1,.343-.343h2.725a.3.3,0,0,1,.343.343V70.268a.3.3,0,0,1-.343.343h-1.695a.322.322,0,0,1-.365-.3Z" transform="translate(-166.264 -44.086)"/></g></g></svg>