<?xml version="1.0" encoding="UTF-8"?>
<svg width="30px" height="43px" viewBox="0 0 30 43" version="1.1" xmlns="http://www.w3.org/2000/svg" xmlns:xlink="http://www.w3.org/1999/xlink">
    <!-- Generator: Sketch 55.2 (78181) - https://sketchapp.com -->
    <title>Group 5</title>
    <desc>Created with Sketch.</desc>
    <g id="Page-1" stroke="none" stroke-width="1" fill="none" fill-rule="evenodd">
        <g id="PAGE-ENDODONTIE" transform="translate(-821.000000, -2968.000000)" fill="#2C2D71">
            <g id="Group-3" transform="translate(821.000000, 2968.000000)">
                <g id="Group-5">
                    <path d="M0,8.75122602 C0.0815003898,8.3305965 0.139950782,7.90432647 0.248964431,7.49039506 C0.543539734,6.37222207 1.06647509,5.36550798 1.89706984,4.51937224 C2.7444171,3.65619746 3.83901686,3.29385324 5.01701237,3.11241674 C6.42116687,2.89613831 7.81987986,3.0295717 9.21706434,3.19737697 C11.165798,3.43139951 13.1104352,3.70854847 15.0649771,3.8824643 C16.7278174,4.03046901 18.3582532,3.80978393 19.8897635,3.10989026 C19.9229017,3.09473138 19.9577519,3.08274529 20,3.08826829 C19.4507742,3.47023679 18.8300139,3.71078118 18.1703071,3.80831505 C17.306941,3.93599042 16.4349541,4.03781343 15.5629672,4.07841337 C13.7390826,4.1633736 11.9185608,4.0566739 10.10024,3.9050851 C8.55809119,3.77652841 7.01484188,3.64773669 5.46798527,3.86936185 C2.87293459,4.24116568 1.19829418,6.08291075 1.16650108,8.61168207 C1.14473503,10.3409107 1.65281323,11.9524523 2.35880348,13.5173422 C3.00157437,14.9421593 3.82293689,16.2648596 4.81096862,17.4964892 C5.45092704,18.2941518 6.08733931,19.0992763 6.65209483,19.9461758 C7.03275606,20.5170428 7.33387341,21.1490153 7.5850389,21.7849244 C8.02329456,22.8945778 7.99180716,24.0048776 7.4150681,25.0822156 C6.93768247,25.9739455 6.6020207,26.9123271 6.40692111,27.9014734 C6.01629396,29.8810585 5.99825749,31.8702207 6.19910429,33.8667274 C6.35018266,35.3689253 6.62714947,36.8505001 7.02835394,38.3101004 C7.04596243,38.37432 7.07158033,38.4364244 7.11676322,38.5667437 C7.32476346,37.7793046 7.50861318,37.0566138 7.70676979,36.3375659 C8.4399676,33.6773001 9.29098329,31.0566942 10.5762805,28.5854443 C11.7885759,26.2546198 13.3337817,24.1723303 15.5256714,22.5921053 C16.1456369,22.1450946 16.8166547,21.7634199 17.5024686,21.4098302 C16.9798389,21.7769336 16.441435,22.1252353 15.9372698,22.5144895 C13.6890085,24.2502987 12.1695428,26.4962218 11.0681565,29.0244055 C9.89902634,31.7080559 9.16546169,34.5106272 8.6164193,37.3644918 C8.49854027,37.9771338 8.321844,38.5830777 8.12001895,39.1756841 C7.98630451,39.5684049 7.75990095,39.9511372 7.25952647,39.9954975 C6.73542944,40.0418554 6.40942788,39.7238715 6.15465509,39.3352049 C5.72410314,38.6782614 5.50711523,37.9409405 5.36869297,37.1888134 C5.04788836,35.4463061 4.72793972,33.7026824 4.46289531,31.9517731 C4.16593553,29.9901672 4.44125155,28.0669284 5.04917231,26.1849947 C5.2448833,25.5789333 5.46217691,24.9765735 5.71646057,24.3913703 C6.06312765,23.5932964 6.08348746,22.7904634 5.70771747,22.0268201 C5.26995093,21.1371467 4.77134953,20.2710929 4.24223897,19.4277774 C3.44900112,18.1633036 2.57132813,16.947303 1.79355884,15.6746034 C0.851810525,14.133627 0.216437644,12.4783714 0.0490347431,10.679694 C0.0437766535,10.6234651 0.0168136588,10.5691164 0,10.5138864 L0,8.75122602 Z" id="Fill-1"></path>
                    <path d="M30,9.73472222 C29.928663,10.2149486 29.8720257,10.6977431 29.7832713,11.1749833 C29.4375183,13.0347333 28.6944397,14.7516278 27.7455028,16.3916597 C27.3691768,17.0420347 26.9926038,17.6925292 26.5990458,18.3331097 C25.5624045,20.0203222 25.0692834,21.8424472 24.9875701,23.8033069 C24.8440313,27.2459944 24.440344,30.6596569 23.5167302,33.9999208 C22.8228773,36.5092694 21.8067415,38.8711639 20.1101555,40.9189792 C19.9237528,41.1439528 19.731359,41.3648653 19.5309359,41.5781333 C18.9751247,42.1696222 18.373979,42.7052111 17.5855041,43 L16.9678675,43 C15.9716814,42.5413333 16.0181894,41.6697472 16.1436314,40.8441472 C16.3046493,39.784675 16.5816593,38.7415667 16.8135818,37.6924264 C17.3336936,35.3391917 17.6426972,32.9657111 17.5049643,30.5545458 C17.4147893,28.9753708 17.1442645,27.4256986 16.4068681,25.9964861 C16.0743943,25.3522028 15.6366753,24.7586833 15.2090854,24.1446792 C15.2697374,24.1923972 15.3344039,24.2360542 15.3904235,24.2884306 C16.6101323,25.4287069 17.265136,26.8609056 17.6432531,28.4260458 C18.1497151,30.5226542 18.1959761,32.6444653 17.9238454,34.7731444 C17.6942081,36.5687528 17.4134923,38.3583292 17.1936754,40.1549528 C17.1256736,40.7109667 17.1831138,41.2812542 17.1831138,41.9274486 C17.552337,41.7095222 17.9181014,41.5318486 18.2382224,41.2963639 C18.8277566,40.8627208 19.2472554,40.2804292 19.6295107,39.6745472 C20.8810277,37.6908736 21.656347,35.5298847 22.155768,33.2698764 C22.7377052,30.6369625 23.062335,27.9756208 23.1045196,25.2806556 C23.1246545,23.9990764 23.1473218,22.7145111 23.4340287,21.4513264 C23.7726788,19.9597042 24.4853697,18.6344681 25.3454287,17.3740903 C26.1497151,16.1954125 26.9606102,15.0224083 27.572194,13.7326472 C28.8978892,10.9372889 29.2752652,8.02851806 28.5856739,5.02873056 C27.9265939,2.16176528 25.9378658,0.623261111 22.9002671,0.469297222 C20.626685,0.354093056 18.4371014,0.757277778 16.2812408,1.40024722 C15.5268595,1.62522083 14.7758751,1.86052639 14,2.04620278 C14.088075,2.00182917 14.1745441,1.95429028 14.2643485,1.91361944 C16.4814786,0.909390278 18.8005188,0.261702778 21.243951,0.0487333333 C21.3020089,0.0437166667 21.357905,0.0167222222 21.4148511,0 L23.4530519,0 C23.9267174,0.0793111111 24.4043976,0.140825 24.8733691,0.240919444 C26.9144728,0.6767125 28.3943301,1.77888611 29.128453,3.70480833 C29.3864398,4.3817 29.5771042,5.08654167 29.743619,5.79084583 C29.873261,6.33921528 29.9177308,6.90645694 30,7.46527778 L30,9.73472222 Z" id="Fill-3"></path>
                </g>
            </g>
        </g>
    </g>
</svg>