<?xml version="1.0" encoding="utf-8"?>
<!-- Generator: Adobe Illustrator 22.1.0, SVG Export Plug-In . SVG Version: 6.00 Build 0)  -->
<svg version="1.1" id="Calque_1" xmlns="http://www.w3.org/2000/svg" xmlns:xlink="http://www.w3.org/1999/xlink" x="0px" y="0px"
	 viewBox="0 0 31.1 25.2" style="enable-background:new 0 0 31.1 25.2;" xml:space="preserve">
<style type="text/css">
	.st0{fill:#02548A;}
</style>
<path class="st0" d="M9.9,25.2C21.6,25.2,28,15.6,28,7.1V6.2c1.2-0.9,2.3-2,3.1-3.3c-1.2,0.5-2.4,0.9-3.6,1c1.3-0.8,2.3-2,2.8-3.5
	c-1.2,0.7-2.6,1.2-4,1.6C25.1,0.7,23.4,0,21.6,0c-3.5,0.1-6.3,2.9-6.4,6.4c0,0.5,0,0.9,0.2,1.4C10.2,7.5,5.4,5.1,2.2,1
	C1.7,2,1.4,3.2,1.4,4.3c0,2.1,1.1,4.1,2.8,5.4c-1,0-2.1-0.3-2.9-0.9l0,0c0,3.1,2.2,5.7,5.2,6.2c-0.6,0.2-1.1,0.2-1.7,0.2
	c-0.4,0-0.8,0-1.2-0.2c0.9,2.6,3.3,4.4,6.1,4.5c-2.3,1.8-5.1,2.7-8,2.8c-0.5,0-1.1,0-1.6-0.2C2.9,24.2,6.3,25.3,9.9,25.2"/>
</svg>
