<svg xmlns="http://www.w3.org/2000/svg" width="31.117" height="25.24" viewBox="0 0 31.117 25.24"><defs><style>.a{fill:#fff;fill-rule:evenodd;}</style></defs><path class="a" d="M47.854,27.239c11.755,0,18.152-9.681,18.152-18.152V8.223a14.052,14.052,0,0,0,3.112-3.285,14.351,14.351,0,0,1-3.63,1.037,6.726,6.726,0,0,0,2.766-3.457,15.857,15.857,0,0,1-3.976,1.556A6.174,6.174,0,0,0,59.609,2a6.5,6.5,0,0,0-6.4,6.4,3.37,3.37,0,0,0,.173,1.383A17.873,17.873,0,0,1,40.247,3.037a6.62,6.62,0,0,0-.864,3.285,6.868,6.868,0,0,0,2.766,5.359,5.828,5.828,0,0,1-2.939-.864h0A6.318,6.318,0,0,0,44.4,17.04a5.329,5.329,0,0,1-1.729.173,2.942,2.942,0,0,1-1.21-.173,6.549,6.549,0,0,0,6.051,4.495A13.052,13.052,0,0,1,39.556,24.3,4.786,4.786,0,0,1,38,24.128a16.317,16.317,0,0,0,9.854,3.112" transform="translate(-38 -2)"/></svg>