<?xml version="1.0" encoding="UTF-8"?>
<svg width="98px" height="11px" viewBox="0 0 98 11" version="1.1" xmlns="http://www.w3.org/2000/svg" xmlns:xlink="http://www.w3.org/1999/xlink">
    <!-- Generator: Sketch 55.2 (78181) - https://sketchapp.com -->
    <title>noun_waves_1258700</title>
    <desc>Created with Sketch.</desc>
    <g id="Page-1" stroke="none" stroke-width="1" fill="none" fill-rule="evenodd">
        <g id="noun_waves_1258700" fill="#2B2B2C" fill-rule="nonzero">
            <g id="Group">
                <path d="M90.8,4.7 C89.3,6.3 88.2,7.6 85.8,7.6 C83.4,7.6 82.2,6.3 80.8,4.7 C79.2,3 77.3,0.9 73.6,0.9 C69.9,0.9 67.9,3 66.4,4.7 C64.9,6.3 63.8,7.6 61.4,7.6 C59,7.6 57.8,6.3 56.4,4.7 C54.8,3 52.9,0.9 49.2,0.9 C45.5,0.9 43.5,3 42,4.7 C40.5,6.3 39.4,7.6 37,7.6 C34.6,7.6 33.4,6.3 32,4.7 C30.4,3 28.5,0.9 24.8,0.9 C21.1,0.9 19.1,3 17.6,4.7 C16.1,6.3 15,7.6 12.6,7.6 C10.2,7.6 9,6.3 7.6,4.7 C5.6,3 3.7,0.8 0,0.8 L0,3.8 C2.4,3.8 3.6,5.1 5,6.7 C6.6,8.4 8.5,10.5 12.2,10.5 C15.9,10.5 17.9,8.4 19.4,6.7 C20.9,5.1 22,3.8 24.4,3.8 C26.8,3.8 28,5.1 29.4,6.7 C31,8.4 32.9,10.5 36.6,10.5 C40.3,10.5 42.3,8.4 43.8,6.7 C45.3,5.1 46.4,3.8 48.8,3.8 C51.2,3.8 52.4,5.1 53.8,6.7 C55.4,8.4 57.3,10.5 61,10.5 C64.7,10.5 66.7,8.4 68.2,6.7 C69.7,5.1 70.8,3.8 73.2,3.8 C75.6,3.8 76.8,5.1 78.2,6.7 C79.8,8.4 81.7,10.5 85.4,10.5 C89.1,10.5 91.1,8.4 92.6,6.7 C94.1,5.1 95.2,3.8 97.6,3.8 L97.6,0.8 C94.3,0.8 92.4,3 90.8,4.7 Z" id="Path"></path>
            </g>
        </g>
    </g>
</svg>