<?xml version="1.0" encoding="utf-8"?>
<!-- Generator: Adobe Illustrator 22.1.0, SVG Export Plug-In . SVG Version: 6.00 Build 0)  -->
<svg version="1.1" id="Calque_1" xmlns="http://www.w3.org/2000/svg" xmlns:xlink="http://www.w3.org/1999/xlink" x="0px" y="0px"
	 viewBox="0 0 61.9 6.9" style="enable-background:new 0 0 61.9 6.9;" xml:space="preserve">
<style type="text/css">
	.st0{fill:#FFFFFF;}
</style>
<title>Path</title>
<desc>Created with Sketch.</desc>
<path class="st0" d="M10.8,2.4c0.1,0,0.1,0,0.1,0c1.3,0,2,0.7,2.8,1.6c0.9,1,2,2.1,4,2.1S21,5,21.9,4c0.8-0.9,1.5-1.6,2.8-1.6
	s2,0.7,2.8,1.6c0.9,1,2,2.1,4,2.1s3.2-1.2,4-2.1c0.8-0.9,1.5-1.6,2.8-1.6s2,0.7,2.8,1.6c0.9,1,2,2.1,4,2.1c2.1,0,3.2-1.2,4-2.1
	c0.8-0.8,1.4-1.5,2.6-1.6V0.8C50.1,1,49,2,48.3,2.9c-0.8,0.9-1.5,1.6-2.8,1.6s-2-0.7-2.8-1.6c-0.9-1-2-2.1-4-2.1
	c-2.1,0-3.2,1.2-4,2.1c-0.8,0.9-1.5,1.6-2.8,1.6s-2-0.7-2.8-1.6c-0.9-1-2-2.1-4-2.1c-2.1,0-3.2,1.2-4,2.1C20,3.8,19.4,4.5,18,4.5
	s-2-0.7-2.8-1.6c-0.9-1-2-2.1-4-2.1c-0.1,0-0.2,0-0.4,0V2.4z"/>
</svg>
