<svg xmlns="http://www.w3.org/2000/svg" viewBox="0 0 233 48"><defs><style>.cls-1{fill:#b2abc4;}.cls-2{fill:#86799f;}.cls-3{fill:#9c90b1;}.cls-4{fill:#cbc5d9;}.cls-5{fill:#29235c;}.cls-6{font-size:20.67px;fill:#fff;font-family:poppins, poppins;}.cls-7{letter-spacing:-0.01em;}.cls-8{letter-spacing:0em;}.cls-9{font-family:poppins-Light, poppins;}</style></defs><title>webmaster-bordeaux-nicolas-metivier-backlink-white</title><g id="Calque_2" data-name="Calque 2"><g id="Calque_1-2" data-name="Calque 1"><text></text><polygon class="cls-1" points="4.56 17.84 8.88 15.35 8.88 45.24 4.56 42.75 4.56 17.84"/><polygon class="cls-2" points="0.23 15.35 4.56 17.84 4.56 42.74 0.23 40.25 0.23 15.35"/><polygon class="cls-3" points="0.23 15.35 4.56 17.85 8.88 15.35 4.56 12.85 0.23 15.35"/><polygon class="cls-4" points="8.88 25.25 8.88 45.24 13.21 42.74 13.21 22.75 8.88 25.25"/><polygon class="cls-3" points="17.54 40.24 17.54 45.24 21.87 47.74 21.87 42.74 17.54 40.24"/><polygon class="cls-4" points="17.54 40.24 21.87 37.74 26.2 40.24 21.87 42.74 17.54 40.24"/><polygon class="cls-1" points="21.87 47.74 21.87 42.74 26.2 40.24 26.2 45.24 21.87 47.74"/><polygon class="cls-2" points="17.54 15.08 13.21 12.64 13.21 2.9 17.54 5.4 17.54 15.08"/><polygon class="cls-3" points="13.21 2.9 17.54 0.4 21.87 2.9 17.54 5.4 13.21 2.9"/><polygon class="cls-1" points="17.54 5.4 21.87 2.9 21.87 32.88 17.74 35.38 17.54 5.4"/><polygon class="cls-3" points="21.87 32.66 21.87 2.9 26.16 5.38 26.25 30.16 21.87 32.66"/><polygon class="cls-3" points="21.87 2.9 26.19 0.4 30.52 2.9 26.2 5.4 21.87 2.9"/><polygon class="cls-4" points="26.3 5.34 26.39 30.25 30.72 27.75 30.52 2.9 26.3 5.34"/><path class="cls-5" d="M8.88,45.5,0,40.37V15.12l4.56-2.63,4.55,2.63v5l4.33,2.5V42.87ZM.46,40.11,8.88,45,13,42.61V22.88l-4.32-2.5v-5L4.56,13,.46,15.39Z"/><path class="cls-5" d="M17.31,35.64V15.39L13,12.89V2.63L17.54,0l4.33,2.5L26.19,0l4.56,2.63V27.88l-.11.07Zm-3.87-23,4.33,2.5V34.85l12.52-7.23V2.89L26.19.53,21.87,3,17.54.53l-4.1,2.36Z"/><rect class="cls-5" x="4.33" y="17.75" width="0.46" height="24.99"/><rect class="cls-5" x="8.66" y="19.94" width="0.46" height="20.31"/><rect class="cls-5" x="17.31" y="5.26" width="0.46" height="9.99"/><rect class="cls-5" x="25.97" y="5.26" width="0.46" height="24.83"/><rect class="cls-5" x="21.64" y="2.76" width="0.46" height="24.83"/><path class="cls-5" d="M21.87,48l-4.56-2.63V40.11l4.56-2.63,4.55,2.63v5.26Zm-4.1-2.89,4.1,2.36L26,45.11V40.37L21.87,38l-4.1,2.36Z"/><polygon class="cls-3" points="9.11 20.65 9.11 25.13 12.98 22.88 9.11 20.65"/><text class="cls-6" transform="translate(40.3 18.79)">Création de si<tspan class="cls-7" x="128.48" y="0">t</tspan><tspan class="cls-8" x="136.58" y="0">e web</tspan><tspan class="cls-9"><tspan x="7.31" y="24.81">Bordeaux | </tspan><tspan class="cls-7" x="110.92" y="24.81">P</tspan><tspan x="122.95" y="24.81">oitiers </tspan></tspan></text></g></g></svg>